<svg xmlns="http://www.w3.org/2000/svg" viewBox="0 0 320 60" fill="none"><path d="M8 44C80 40 200 36 312 18" stroke="#8C6E2F" stroke-width="1.6" stroke-linecap="round"/><g fill="#C9A45C" opacity="0.95"><ellipse cx="52" cy="38" rx="16" ry="6" transform="rotate(-18 52 38)"/><ellipse cx="92" cy="36" rx="16" ry="6" transform="rotate(-14 92 36)"/><ellipse cx="130" cy="34" rx="16" ry="6" transform="rotate(-10 130 34)"/><ellipse cx="168" cy="31" rx="16" ry="6" transform="rotate(-8 168 31)"/><ellipse cx="206" cy="28" rx="15" ry="5.6" transform="rotate(-6 206 28)"/><ellipse cx="242" cy="25" rx="14" ry="5.4" transform="rotate(-4 242 25)"/><ellipse cx="276" cy="21" rx="12" ry="5" transform="rotate(8 276 21)"/></g><g fill="#DCC084"><ellipse cx="70" cy="46" rx="13" ry="5" transform="rotate(16 70 46)"/><ellipse cx="112" cy="44" rx="13" ry="5" transform="rotate(14 112 44)"/><ellipse cx="150" cy="41" rx="13" ry="5" transform="rotate(12 150 41)"/><ellipse cx="188" cy="38" rx="13" ry="5" transform="rotate(10 188 38)"/><ellipse cx="224" cy="35" rx="12" ry="4.8" transform="rotate(10 224 35)"/><ellipse cx="258" cy="31" rx="11" ry="4.6" transform="rotate(12 258 31)"/></g></svg>
